<svg width="45" height="33" viewBox="0 0 45 33" fill="none" xmlns="http://www.w3.org/2000/svg">
<path d="M38.01 4.01001C38.01 4.01001 33.425 0.42201 28.01 0.0100098L27.522 0.98601C32.418 2.18401 34.664 3.90101 37.01 6.01001C32.965 3.94501 28.971 2.01001 22.01 2.01001C15.049 2.01001 11.055 3.94501 7.01001 6.01001C9.35601 3.90101 12.028 1.99501 16.498 0.98601L16.01 0.0100098C10.329 0.54701 6.01001 4.01001 6.01001 4.01001C6.01001 4.01001 0.88901 11.435 0.0100098 26.01C5.17201 31.963 13.01 32.01 13.01 32.01L14.649 29.825C11.867 28.858 8.72501 27.131 6.01001 24.01C9.24801 26.46 14.135 29.01 22.01 29.01C29.885 29.01 34.772 26.46 38.01 24.01C35.295 27.131 32.153 28.858 29.371 29.825L31.01 32.01C31.01 32.01 38.848 31.963 44.01 26.01C43.131 11.435 38.01 4.01001 38.01 4.01001ZM15.51 22.01C13.577 22.01 12.01 20.219 12.01 18.01C12.01 15.801 13.577 14.01 15.51 14.01C17.443 14.01 19.01 15.801 19.01 18.01C19.01 20.219 17.443 22.01 15.51 22.01ZM28.51 22.01C26.577 22.01 25.01 20.219 25.01 18.01C25.01 15.801 26.577 14.01 28.51 14.01C30.443 14.01 32.01 15.801 32.01 18.01C32.01 20.219 30.443 22.01 28.51 22.01Z" fill="#8C9EFF"/>
</svg>
