<svg width="36" height="30" viewBox="0 0 36 30" fill="none" xmlns="http://www.w3.org/2000/svg">
<path d="M36.01 3.43901C34.687 4.02501 33.264 4.41601 31.763 4.60101C33.289 3.69501 34.463 2.25001 35.014 0.54301C33.586 1.38001 32.004 1.99501 30.321 2.31901C28.977 0.89401 27.06 0.0100098 24.936 0.0100098C20.856 0.0100098 17.549 3.28801 17.549 7.33001C17.549 7.90201 17.616 8.45901 17.742 9.00001C11.604 8.69201 6.16002 5.77401 2.51802 1.34601C1.87802 2.42801 1.51802 3.69501 1.51802 5.03201C1.51802 7.57301 2.81902 9.81001 4.80302 11.128C3.59202 11.091 2.45202 10.754 1.45402 10.214C1.45402 10.236 1.45402 10.269 1.45402 10.3C1.45402 13.851 4.00102 16.808 7.37702 17.481C6.76002 17.65 6.10802 17.744 5.43602 17.744C4.95902 17.744 4.49402 17.69 4.04402 17.609C4.98402 20.511 7.71102 22.632 10.942 22.695C8.41402 24.655 5.23002 25.829 1.76802 25.829C1.17002 25.829 0.585019 25.795 0.00701904 25.725C3.27802 27.796 7.16202 29.01 11.331 29.01C24.916 29.01 32.348 17.854 32.348 8.17601C32.348 7.85901 32.338 7.54301 32.323 7.23101C33.773 6.20701 35.023 4.91501 36.01 3.43901Z" fill="#03A9F4"/>
</svg>
